<svg xmlns="http://www.w3.org/2000/svg" viewBox="0 0 47.5 47.5" id="prohibited"><defs><clipPath id="a"><path d="M0 38h38V0H0v38Z"></path></clipPath></defs><g clip-path="url(#a)" transform="matrix(1.25 0 0 -1.25 0 47.5)"><path fill="#dd2e44" d="M6 19c0 2.565.753 4.95 2.036 6.964L25.965 8.035A12.93 12.93 0 0 0 19 6C11.821 6 6 11.82 6 19m26 0c0-2.565-.753-4.95-2.035-6.965L12.036 29.964A12.916 12.916 0 0 0 19 32c7.18 0 13-5.821 13-13M19 37C9.059 37 1 28.941 1 19S9.059 1 19 1s18 8.059 18 18-8.059 18-18 18"></path></g></svg>